<?xml version="1.0" encoding="utf-8"?>
<!-- Generator: Adobe Illustrator 13.0.0, SVG Export Plug-In . SVG Version: 6.00 Build 14948)  -->
<!DOCTYPE svg PUBLIC "-//W3C//DTD SVG 1.1//EN" "http://www.w3.org/Graphics/SVG/1.1/DTD/svg11.dtd">
<svg version="1.1" id="Ebene_1" xmlns="http://www.w3.org/2000/svg" xmlns:xlink="http://www.w3.org/1999/xlink" x="0px" y="0px"
	 width="34.016px" height="34.016px" viewBox="0 0 34.016 34.016" enable-background="new 0 0 34.016 34.016" xml:space="preserve">
<rect x="0" y="0" fill="none" width="34.016" height="34.016"/>
<path fill="#242424" d="M24.271,31.013l-7.266-4.017l-7.264,4.017c-0.455,0.25-1.015,0.219-1.438-0.079l0,0
	c-0.424-0.298-0.641-0.813-0.558-1.327l0,0l1.4-8.599L3.22,14.929c-0.353-0.361-0.477-0.896-0.314-1.377l0,0
	c0.16-0.479,0.58-0.834,1.081-0.91l0,0l8.144-1.246l3.65-7.779c0.225-0.479,0.699-0.781,1.229-0.781l0,0
	c0.526,0,1.003,0.302,1.228,0.781l0,0l3.65,7.781l8.141,1.244c0.508,0.076,0.924,0.425,1.084,0.91l0,0
	c0.162,0.484,0.039,1.013-0.314,1.377l0,0l-5.93,6.079l1.4,8.599c0.084,0.514-0.133,1.029-0.559,1.327l0,0
	c-0.232,0.164-0.506,0.247-0.781,0.247l0,0C24.703,31.181,24.477,31.126,24.271,31.013L24.271,31.013z"/>
</svg>
