<?xml version="1.0" encoding="utf-8"?>
<!-- Generator: Adobe Illustrator 25.4.1, SVG Export Plug-In . SVG Version: 6.00 Build 0)  -->
<svg version="1.1" id="Ebene_1" xmlns="http://www.w3.org/2000/svg" xmlns:xlink="http://www.w3.org/1999/xlink" x="0px" y="0px"
	 viewBox="0 0 102 102" style="enable-background:new 0 0 102 102;" xml:space="preserve">
<style type="text/css">
	.st0{fill:#FFFFFF;}
</style>
<g>
	<path class="st0" d="M93,40.5c-0.2-0.4-0.4-0.7-0.6-1c-0.1-0.1-0.1-0.2-0.2-0.3L62.8,9.8c-0.1-0.1-0.2-0.1-0.2-0.1
		c-0.3-0.3-0.6-0.5-1-0.7c-0.5-0.2-1-0.3-1.5-0.3H21.3c-7.1,0-12.9,5.8-12.9,12.9v60.2c0,7.1,5.8,12.9,12.9,12.9h59.1
		c7.1,0,12.9-5.8,12.9-13V42C93.3,41.5,93.2,40.9,93,40.5z M63.9,21.9l16.2,16.2h-11c-2.9,0-5.2-2.3-5.2-5.2
		C63.9,32.9,63.9,21.9,63.9,21.9z M85.6,81.8c0,2.9-2.3,5.2-5.2,5.2H21.3c-2.9,0-5.2-2.3-5.2-5.2V21.6c0-2.9,2.3-5.2,5.2-5.2h34.9
		v16.5c0,7.1,5.8,12.9,12.9,12.9h16.5V81.8z"/>
	<path class="st0" d="M73.5,70.3H28.2c-2.1,0-3.9,1.7-3.9,3.9c0,2.1,1.7,3.9,3.9,3.9h45.3c2.1,0,3.9-1.7,3.9-3.9
		C77.3,72,75.6,70.3,73.5,70.3z"/>
	<path class="st0" d="M24.3,58.7c0,2.1,1.7,3.9,3.9,3.9h45.3c2.1,0,3.9-1.7,3.9-3.9c0-2.1-1.7-3.9-3.9-3.9H28.2
		C26.1,54.8,24.3,56.5,24.3,58.7z"/>
</g>
</svg>
