<?xml version="1.0" encoding="utf-8"?>
<!-- Generator: Adobe Illustrator 27.0.1, SVG Export Plug-In . SVG Version: 6.00 Build 0)  -->
<svg version="1.1" id="Ebene_1" xmlns="http://www.w3.org/2000/svg" xmlns:xlink="http://www.w3.org/1999/xlink" x="0px" y="0px"
	 viewBox="0 0 127.6 127.6" style="enable-background:new 0 0 127.6 127.6;" xml:space="preserve">
<style type="text/css">
	.st0{fill:#FFFFFF;}
</style>
<path class="st0" d="M124.8,66.1c0.3-0.7,0.5-1.5,0.5-2.3s-0.2-1.6-0.5-2.3c-0.3-0.7-0.7-1.4-1.3-1.9L80.3,16.3
	c-2.3-2.3-6.1-2.3-8.5,0s-2.3,6.1,0,8.5l33,33H8.3c-3.3,0-6,2.7-6,6s2.7,6,6,6h96.6l-33,33c-2.3,2.3-2.3,6.1,0,8.5
	c1.2,1.2,2.7,1.8,4.2,1.8c1.5,0,3.1-0.6,4.2-1.8L123.5,68C124.1,67.5,124.5,66.8,124.8,66.1z"/>
</svg>
