<?xml version="1.0" encoding="utf-8"?>
<!-- Generator: Adobe Illustrator 13.0.0, SVG Export Plug-In . SVG Version: 6.00 Build 14948)  -->
<!DOCTYPE svg PUBLIC "-//W3C//DTD SVG 1.1//EN" "http://www.w3.org/Graphics/SVG/1.1/DTD/svg11.dtd">
<svg version="1.1" id="Ebene_1" xmlns="http://www.w3.org/2000/svg" xmlns:xlink="http://www.w3.org/1999/xlink" x="0px" y="0px"
	 width="34.016px" height="34.016px" viewBox="0 0 34.016 34.016" enable-background="new 0 0 34.016 34.016" xml:space="preserve">
<rect x="0" y="0" fill="none" width="34.016" height="34.016"/>
<path fill-rule="evenodd" clip-rule="evenodd" fill="#242424" d="M2.835,5.354v23.308c0,1.385,1.133,2.52,2.52,2.52h10.654V2.835
	H5.355C3.968,2.835,2.835,3.969,2.835,5.354z M5.929,6.003h6.986v2.011H5.929V6.003z M5.929,10.003h6.986v2.011H5.929V10.003z
	 M5.929,14.003h6.986v2.011H5.929V14.003z M5.929,18.002h6.986v2.012H5.929V18.002z M5.929,22.002h6.986v2.012H5.929V22.002z
	 M5.929,26.002h6.986v2.012H5.929V26.002z M28.661,2.835l-10.654,0v28.347h10.654c1.387,0,2.52-1.135,2.52-2.52V5.355
	C31.181,3.969,30.048,2.835,28.661,2.835z M28.087,28.014h-6.986v-2.012h6.986V28.014z M28.087,24.014h-6.986v-2.012h6.986V24.014z
	 M28.087,20.014h-6.986v-2.012h6.986V20.014z M28.087,16.013h-6.986v-2.011h6.986V16.013z M28.087,12.013h-6.986v-2.011h6.986
	V12.013z M28.087,8.013h-6.986V6.003h6.986V8.013z"/>
</svg>
