<?xml version="1.0" encoding="utf-8"?>
<!-- Generator: Adobe Illustrator 27.0.1, SVG Export Plug-In . SVG Version: 6.00 Build 0)  -->
<svg version="1.1" id="Ebene_1" xmlns="http://www.w3.org/2000/svg" xmlns:xlink="http://www.w3.org/1999/xlink" x="0px" y="0px"
	 viewBox="0 0 127.6 127.6" style="enable-background:new 0 0 127.6 127.6;" xml:space="preserve">
<style type="text/css">
	.st0{fill:#0071BC;}
</style>
<path class="st0" d="M72.3,63.8l39-39c2.3-2.3,2.3-6.1,0-8.5s-6.1-2.3-8.5,0l-39,39l-39-39c-2.3-2.3-6.1-2.3-8.5,0
	c-2.3,2.3-2.3,6.1,0,8.5l39,39l-39,39c-2.3,2.3-2.3,6.1,0,8.5c2.3,2.3,6.1,2.3,8.5,0l39-39l39,39c1.2,1.2,2.7,1.8,4.2,1.8
	s3.1-0.6,4.2-1.8c2.3-2.3,2.3-6.1,0-8.5L72.3,63.8z"/>
</svg>
