<?xml version="1.0" encoding="utf-8"?>
<!-- Generator: Adobe Illustrator 13.0.0, SVG Export Plug-In . SVG Version: 6.00 Build 14948)  -->
<!DOCTYPE svg PUBLIC "-//W3C//DTD SVG 1.1//EN" "http://www.w3.org/Graphics/SVG/1.1/DTD/svg11.dtd">
<svg version="1.1" id="Ebene_1" xmlns="http://www.w3.org/2000/svg" xmlns:xlink="http://www.w3.org/1999/xlink" x="0px" y="0px"
	 width="34.016px" height="34.016px" viewBox="0 0 34.016 34.016" enable-background="new 0 0 34.016 34.016" xml:space="preserve">
<rect x="0" y="0" fill="none" width="34.016" height="34.016"/>
<path fill-rule="evenodd" clip-rule="evenodd" fill="#242424" d="M8.502,15.955l2.133-2.125L21.248,3.255
	c0.281-0.28,0.633-0.421,1.056-0.421c0.422,0,0.772,0.141,1.055,0.421l2.134,2.126c0.297,0.296,0.445,0.646,0.445,1.052
	l-0.023,21.151c0,0.42-0.141,0.77-0.422,1.051l-2.134,2.125c-0.282,0.281-0.633,0.422-1.055,0.422c-0.423,0-0.774-0.141-1.056-0.422
	L10.635,20.186l-2.133-2.127c-0.283-0.281-0.424-0.631-0.424-1.052S8.219,16.237,8.502,15.955"/>
</svg>
