<?xml version="1.0" encoding="utf-8"?>
<!-- Generator: Adobe Illustrator 25.4.1, SVG Export Plug-In . SVG Version: 6.00 Build 0)  -->
<svg version="1.1" id="Ebene_1" xmlns="http://www.w3.org/2000/svg" xmlns:xlink="http://www.w3.org/1999/xlink" x="0px" y="0px"
	 viewBox="0 0 102 102" style="enable-background:new 0 0 102 102;" xml:space="preserve">
<style type="text/css">
	.st0{fill:#FFFFFF;}
</style>
<g>
	<path class="st0" d="M93,40.5c-0.2-0.4-0.4-0.7-0.6-1c-0.1-0.1-0.1-0.2-0.2-0.3L62.8,9.8c-0.1-0.1-0.2-0.1-0.2-0.1
		c-0.3-0.3-0.6-0.5-1-0.7c-0.5-0.2-1-0.3-1.5-0.3H21.3c-7.1,0-12.9,5.8-12.9,12.9v60.2c0,7.1,5.8,12.9,12.9,12.9h59.1
		c7.1,0,12.9-5.8,12.9-13V42C93.3,41.5,93.2,40.9,93,40.5z M63.9,21.9l16.2,16.2h-11c-2.9,0-5.2-2.3-5.2-5.2V21.9z M80.4,87H21.3
		c-2.9,0-5.2-2.3-5.2-5.2V21.6c0-2.9,2.3-5.2,5.2-5.2h34.9v16.5c0,7.1,5.8,12.9,12.9,12.9h16.5v35.9C85.6,84.7,83.3,87,80.4,87z"/>
	<path class="st0" d="M32.6,54.1h-6.9c-1.2,0-1.9,0.7-1.9,1.6v21.3c0,1.1,1.3,1.6,2.6,1.6c1.3,0,2.6-0.5,2.6-1.6v-7.2h3.3
		c4.6,0,8.2-2.1,8.2-7.8v-0.2C40.5,56.2,37,54.1,32.6,54.1z M35.3,62.4c0,2.3-1.1,3.3-3,3.3h-3.3v-7.1h3.3c1.9,0,3,1.1,3,3.3V62.4z"
		/>
	<path class="st0" d="M50.9,54.1l-5.9,0c-1.4,0-2.3,0.7-2.3,1.6V77c0,0.8,0.9,1.6,2.3,1.6h5.9c4.6,0,8.2-2.1,8.2-7.9V62
		C59.2,56.2,55.6,54.1,50.9,54.1z M53.9,70.7c0,2.3-1.1,3.3-3,3.3h-3V58.6h3c1.9,0,3,1.1,3,3.3V70.7z"/>
	<path class="st0" d="M76.4,54.1H64.8c-1.1,0-2.3,0.5-2.3,1.6l0,21.2c0,1.1,1.3,1.6,2.6,1.6s2.6-0.5,2.6-1.6v-8.6h5.1
		c1.1,0,1.6-1.1,1.6-2c0-1.1-0.6-2-1.6-2h-5.1v-5.7h8.7c1,0,1.6-1.1,1.6-2.3C77.9,55.3,77.5,54.1,76.4,54.1z"/>
</g>
</svg>
