<?xml version="1.0" encoding="utf-8"?>
<!-- Generator: Adobe Illustrator 13.0.0, SVG Export Plug-In . SVG Version: 6.00 Build 14948)  -->
<!DOCTYPE svg PUBLIC "-//W3C//DTD SVG 1.1//EN" "http://www.w3.org/Graphics/SVG/1.1/DTD/svg11.dtd">
<svg version="1.1" id="Ebene_1" xmlns="http://www.w3.org/2000/svg" xmlns:xlink="http://www.w3.org/1999/xlink" x="0px" y="0px"
	 width="34.016px" height="34.016px" viewBox="0 0 34.016 34.016" enable-background="new 0 0 34.016 34.016" xml:space="preserve">
<rect x="0" y="0" fill="none" width="34.016" height="34.016"/>
<path fill="#FFFFFF" d="M17.009,2.835c-7.807,0-14.174,6.366-14.174,14.173s6.367,14.174,14.174,14.174
	c7.806,0,14.173-6.367,14.173-14.174C31.182,9.202,24.815,2.835,17.009,2.835z M18.556,25.543c-0.133,0.281-0.293,0.535-0.506,0.732
	c-0.213,0.201-0.467,0.361-0.748,0.48c-0.279,0.121-0.586,0.174-0.92,0.174s-0.654-0.053-0.936-0.174
	c-0.279-0.119-0.533-0.279-0.746-0.48c-0.201-0.197-0.373-0.451-0.494-0.732c-0.119-0.281-0.174-0.574-0.174-0.895
	c0-0.318,0.055-0.613,0.174-0.895c0.121-0.281,0.293-0.521,0.494-0.721c0.213-0.201,0.467-0.359,0.746-0.48
	c0.279-0.133,0.602-0.188,0.936-0.188s0.641,0.055,0.92,0.188c0.281,0.121,0.535,0.279,0.748,0.48
	c0.213,0.197,0.373,0.438,0.506,0.721c0.121,0.279,0.174,0.574,0.174,0.895C18.73,24.97,18.677,25.262,18.556,25.543z
	 M22.158,13.573c-0.188,0.492-0.428,0.92-0.723,1.279c-0.277,0.359-0.6,0.682-0.945,0.947c-0.336,0.254-0.666,0.507-0.975,0.734
	c-0.309,0.227-0.574,0.451-0.789,0.68c-0.227,0.227-0.373,0.467-0.426,0.749l-0.375,1.867H15.1l-0.293-2.148
	c-0.014-0.053-0.014-0.105-0.014-0.16c-0.016-0.053-0.016-0.105-0.016-0.161c0-0.387,0.096-0.731,0.279-1.025
	c0.188-0.293,0.428-0.562,0.709-0.801c0.279-0.253,0.586-0.493,0.92-0.723c0.334-0.227,0.643-0.467,0.919-0.731
	c0.281-0.253,0.521-0.547,0.709-0.867c0.188-0.334,0.279-0.721,0.279-1.161c0-0.534-0.174-0.961-0.533-1.281
	c-0.348-0.307-0.828-0.467-1.439-0.467c-0.469,0-0.867,0.053-1.188,0.147c-0.307,0.093-0.588,0.213-0.812,0.318
	c-0.229,0.12-0.414,0.24-0.59,0.333c-0.172,0.093-0.332,0.147-0.506,0.147c-0.387,0-0.668-0.161-0.854-0.494l-1.093-1.681
	c0.334-0.28,0.691-0.533,1.066-0.773c0.389-0.24,0.814-0.454,1.254-0.641c0.439-0.175,0.92-0.32,1.441-0.429
	c0.506-0.093,1.055-0.146,1.654-0.146c0.841,0,1.587,0.104,2.255,0.333c0.68,0.227,1.254,0.534,1.721,0.961
	c0.467,0.414,0.84,0.907,1.096,1.494c0.238,0.574,0.373,1.228,0.373,1.935C22.438,12.491,22.344,13.078,22.158,13.573z"/>
</svg>
