<?xml version="1.0" encoding="utf-8"?>
<!-- Generator: Adobe Illustrator 13.0.0, SVG Export Plug-In . SVG Version: 6.00 Build 14948)  -->
<!DOCTYPE svg PUBLIC "-//W3C//DTD SVG 1.1//EN" "http://www.w3.org/Graphics/SVG/1.1/DTD/svg11.dtd">
<svg version="1.1" id="Ebene_1" xmlns="http://www.w3.org/2000/svg" xmlns:xlink="http://www.w3.org/1999/xlink" x="0px" y="0px"
	 width="34.016px" height="34.016px" viewBox="0 0 34.016 34.016" enable-background="new 0 0 34.016 34.016" xml:space="preserve">
<rect x="0" y="0" fill="none" width="34.016" height="34.016"/>
<path fill-rule="evenodd" clip-rule="evenodd" fill="#FFFFFF" d="M25.513,18.061l-2.133,2.125L12.767,30.761
	c-0.281,0.28-0.633,0.421-1.056,0.421c-0.422,0-0.772-0.141-1.055-0.421l-2.134-2.126c-0.297-0.296-0.445-0.646-0.445-1.052
	L8.101,6.432c0-0.42,0.141-0.77,0.422-1.051l2.134-2.125c0.282-0.281,0.633-0.422,1.055-0.422c0.423,0,0.774,0.141,1.056,0.422
	L23.38,13.83l2.133,2.127c0.283,0.281,0.424,0.631,0.424,1.052S25.796,17.78,25.513,18.061"/>
</svg>
