<?xml version="1.0" encoding="utf-8"?>
<!-- Generator: Adobe Illustrator 13.0.0, SVG Export Plug-In . SVG Version: 6.00 Build 14948)  -->
<!DOCTYPE svg PUBLIC "-//W3C//DTD SVG 1.1//EN" "http://www.w3.org/Graphics/SVG/1.1/DTD/svg11.dtd">
<svg version="1.1" id="Ebene_1" xmlns="http://www.w3.org/2000/svg" xmlns:xlink="http://www.w3.org/1999/xlink" x="0px" y="0px"
	 width="34.016px" height="34.016px" viewBox="0 0 34.016 34.016" enable-background="new 0 0 34.016 34.016" xml:space="preserve">
<rect x="0" y="0" fill="none" width="34.016" height="34.016"/>
<path fill="#242424" d="M17.008,3.826c-3.947,0-7.479,1.767-9.896,4.531L7.093,8.34l0.001-4.447
	C7.093,3.596,6.991,3.344,6.788,3.141C6.583,2.937,6.332,2.834,6.035,2.834H3.894c-0.282,0-0.528,0.106-0.741,0.318
	c-0.212,0.211-0.316,0.459-0.316,0.74l-0.001,8.517v2.14c0.001,0.283,0.106,0.529,0.318,0.741c0.212,0.213,0.458,0.318,0.74,0.317
	l2.141,0.001h8.517c0.282,0,0.529-0.106,0.741-0.317c0.211-0.212,0.317-0.459,0.317-0.742v-2.141c0-0.281-0.105-0.528-0.317-0.74
	c-0.212-0.211-0.459-0.317-0.741-0.318l-4.413,0.001c1.639-1.989,4.102-3.272,6.87-3.272c4.918,0,8.929,4.012,8.929,8.93
	s-4.011,8.93-8.929,8.93c-2.982,0-5.624-1.48-7.247-3.736L6.73,25.233c2.418,3.016,6.126,4.957,10.278,4.957
	c7.26,0,13.181-5.922,13.181-13.182S24.268,3.826,17.008,3.826z"/>
</svg>
