<?xml version="1.0" encoding="utf-8"?>
<!-- Generator: Adobe Illustrator 13.0.0, SVG Export Plug-In . SVG Version: 6.00 Build 14948)  -->
<!DOCTYPE svg PUBLIC "-//W3C//DTD SVG 1.1//EN" "http://www.w3.org/Graphics/SVG/1.1/DTD/svg11.dtd">
<svg version="1.1" id="Ebene_1" xmlns="http://www.w3.org/2000/svg" xmlns:xlink="http://www.w3.org/1999/xlink" x="0px" y="0px"
	 width="34.016px" height="34.016px" viewBox="0 0 34.016 34.016" enable-background="new 0 0 34.016 34.016" xml:space="preserve">
<rect x="0" y="0" fill="none" width="34.016" height="34.016"/>
<path fill="#242424" d="M31.181,3.89c0-0.422-0.139-0.772-0.42-1.055H3.255c-0.279,0.282-0.42,0.633-0.42,1.055
	c0,0.423,0.141,0.774,0.42,1.056l9.174,10.073v6.887c0,0.32,0.113,0.635,0.311,0.861l7.03,8.058
	c0.203,0.233,0.475,0.356,0.752,0.356c0.137,0,0.274-0.03,0.407-0.092c0.398-0.189,0.658-0.635,0.658-1.129V15.019l9.174-10.073
	C31.042,4.664,31.181,4.313,31.181,3.89z"/>
</svg>
