<?xml version="1.0" encoding="utf-8"?>
<!-- Generator: Adobe Illustrator 13.0.0, SVG Export Plug-In . SVG Version: 6.00 Build 14948)  -->
<!DOCTYPE svg PUBLIC "-//W3C//DTD SVG 1.1//EN" "http://www.w3.org/Graphics/SVG/1.1/DTD/svg11.dtd">
<svg version="1.1" id="Ebene_1" xmlns="http://www.w3.org/2000/svg" xmlns:xlink="http://www.w3.org/1999/xlink" x="0px" y="0px"
	 width="34.016px" height="34.016px" viewBox="0 0 34.016 34.016" enable-background="new 0 0 34.016 34.016" xml:space="preserve">
<rect x="0" y="0" fill="none" width="34.016" height="34.016"/>
<path fill="#FFFFFF" d="M25.477,14.156c-1.609,1.61-4.191,1.666-5.736,0.121c-1.545-1.544-1.49-4.127,0.123-5.738l5.014-5.014
	c-1.123-0.44-2.34-0.69-3.619-0.69c-5.479,0-9.921,4.442-9.921,9.922c0,1.278,0.25,2.495,0.691,3.617l-7.947,7.947
	c-1.612,1.611-1.667,4.194-0.122,5.737c1.545,1.545,4.126,1.49,5.736-0.121l7.95-7.949c1.121,0.439,2.338,0.689,3.613,0.689
	c5.48,0,9.924-4.442,9.924-9.921c0-1.276-0.25-2.494-0.689-3.615L25.477,14.156z"/>
</svg>
