<?xml version="1.0" encoding="utf-8"?>
<!-- Generator: Adobe Illustrator 13.0.0, SVG Export Plug-In . SVG Version: 6.00 Build 14948)  -->
<!DOCTYPE svg PUBLIC "-//W3C//DTD SVG 1.1//EN" "http://www.w3.org/Graphics/SVG/1.1/DTD/svg11.dtd">
<svg version="1.1" id="Ebene_1" xmlns="http://www.w3.org/2000/svg" xmlns:xlink="http://www.w3.org/1999/xlink" x="0px" y="0px"
	 width="34.016px" height="34.016px" viewBox="0 0 34.016 34.016" enable-background="new 0 0 34.016 34.016" xml:space="preserve">
<rect x="0" y="0" fill="none" width="34.016" height="34.016"/>
<path fill="#242424" d="M21.963,14.883h-2.83v-2.829c0-1.22-0.956-2.219-2.125-2.219c-1.169,0-2.125,0.998-2.125,2.219v2.829h-2.83
	c-1.22,0-2.218,0.956-2.218,2.125c0,1.17,0.999,2.127,2.218,2.127h2.83v2.828c0,1.221,0.956,2.219,2.125,2.219
	c1.169,0,2.125-0.998,2.125-2.219v-2.828h2.83c1.219,0,2.218-0.957,2.218-2.127C24.181,15.839,23.183,14.883,21.963,14.883z
	 M28.401,25.397c1.738-2.354,2.78-5.25,2.78-8.389c0-7.806-6.367-14.173-14.173-14.173c-7.806,0-14.173,6.367-14.173,14.173
	c0,7.807,6.367,14.174,14.173,14.174c3.138,0,6.034-1.041,8.387-2.779l2.113,2.113c0.861,0.861,2.244,0.891,3.071,0.064
	s0.798-2.209-0.065-3.072L28.401,25.397z M17.008,26.93c-5.464,0-9.921-4.457-9.921-9.922c0-5.464,4.457-9.921,9.921-9.921
	c5.464,0,9.921,4.457,9.921,9.921C26.929,22.473,22.472,26.93,17.008,26.93z"/>
</svg>
