<?xml version="1.0" encoding="utf-8"?>
<!-- Generator: Adobe Illustrator 13.0.0, SVG Export Plug-In . SVG Version: 6.00 Build 14948)  -->
<!DOCTYPE svg PUBLIC "-//W3C//DTD SVG 1.1//EN" "http://www.w3.org/Graphics/SVG/1.1/DTD/svg11.dtd">
<svg version="1.1" id="Ebene_1" xmlns="http://www.w3.org/2000/svg" xmlns:xlink="http://www.w3.org/1999/xlink" x="0px" y="0px"
	 width="34.016px" height="34.016px" viewBox="0 0 34.016 34.016" enable-background="new 0 0 34.016 34.016" xml:space="preserve">
<rect x="0" y="0" fill="none" width="34.016" height="34.016"/>
<path fill="#242424" d="M17.008,3.826c3.947,0,7.479,1.767,9.896,4.531l0.019-0.018l-0.001-4.447
	c0.001-0.297,0.103-0.549,0.306-0.752c0.205-0.204,0.456-0.307,0.753-0.307h2.142c0.282,0,0.528,0.106,0.741,0.318
	c0.212,0.211,0.316,0.459,0.316,0.74l0.001,8.517v2.14c-0.001,0.283-0.106,0.529-0.318,0.741c-0.212,0.213-0.458,0.318-0.74,0.317
	l-2.141,0.001h-8.517c-0.282,0-0.529-0.106-0.741-0.317c-0.211-0.212-0.317-0.459-0.317-0.742v-2.141
	c0-0.281,0.105-0.528,0.317-0.74c0.212-0.211,0.459-0.317,0.741-0.318l4.413,0.001c-1.639-1.989-4.102-3.272-6.87-3.272
	c-4.918,0-8.929,4.012-8.929,8.93s4.011,8.93,8.929,8.93c2.982,0,5.624-1.48,7.247-3.736l3.031,3.031
	c-2.418,3.016-6.126,4.957-10.278,4.957c-7.26,0-13.181-5.922-13.181-13.182S9.748,3.826,17.008,3.826z"/>
</svg>
