<?xml version="1.0" encoding="utf-8"?>
<!-- Generator: Adobe Illustrator 13.0.0, SVG Export Plug-In . SVG Version: 6.00 Build 14948)  -->
<!DOCTYPE svg PUBLIC "-//W3C//DTD SVG 1.1//EN" "http://www.w3.org/Graphics/SVG/1.1/DTD/svg11.dtd">
<svg version="1.1" id="Ebene_1" xmlns="http://www.w3.org/2000/svg" xmlns:xlink="http://www.w3.org/1999/xlink" x="0px" y="0px"
	 width="34.016px" height="34.016px" viewBox="0 0 34.016 34.016" enable-background="new 0 0 34.016 34.016" xml:space="preserve">
<rect x="0" y="0" fill="none" width="34.016" height="34.016"/>
<path fill-rule="evenodd" clip-rule="evenodd" fill="#242424" d="M18.061,7.503l2.125,2.133l10.575,10.613
	c0.28,0.281,0.421,0.633,0.421,1.056c0,0.422-0.141,0.772-0.421,1.055l-2.126,2.134c-0.296,0.297-0.646,0.445-1.052,0.445
	L6.432,24.914c-0.42,0-0.77-0.141-1.051-0.422l-2.125-2.134c-0.281-0.282-0.422-0.633-0.422-1.055c0-0.423,0.141-0.774,0.422-1.056
	L13.831,9.635l2.127-2.133c0.281-0.283,0.63-0.424,1.051-0.424S17.78,7.219,18.061,7.503"/>
</svg>
