<?xml version="1.0" encoding="utf-8"?>
<!-- Generator: Adobe Illustrator 13.0.0, SVG Export Plug-In . SVG Version: 6.00 Build 14948)  -->
<!DOCTYPE svg PUBLIC "-//W3C//DTD SVG 1.1//EN" "http://www.w3.org/Graphics/SVG/1.1/DTD/svg11.dtd">
<svg version="1.1" id="Ebene_1" xmlns="http://www.w3.org/2000/svg" xmlns:xlink="http://www.w3.org/1999/xlink" x="0px" y="0px"
	 width="34.016px" height="34.016px" viewBox="0 0 34.016 34.016" enable-background="new 0 0 34.016 34.016" xml:space="preserve">
<rect x="0" y="0" fill="none" width="34.016" height="34.016"/>
<path fill="#242424" d="M21.963,14.882h-9.91c-1.221,0-2.219,0.956-2.219,2.126s0.999,2.126,2.219,2.126h9.91
	c1.22,0,2.219-0.956,2.219-2.126S23.184,14.882,21.963,14.882z M28.402,25.396c1.738-2.353,2.78-5.249,2.78-8.388
	c0-7.807-6.367-14.174-14.174-14.174S2.834,9.201,2.834,17.008s6.367,14.174,14.174,14.174c3.139,0,6.034-1.042,8.387-2.78
	l2.113,2.113c0.862,0.862,2.244,0.892,3.072,0.065c0.826-0.827,0.797-2.209-0.066-3.072L28.402,25.396z M17.008,26.929
	c-5.465,0-9.922-4.456-9.922-9.921s4.457-9.922,9.922-9.922s9.922,4.457,9.922,9.922S22.473,26.929,17.008,26.929z"/>
</svg>
