<?xml version="1.0" encoding="utf-8"?>
<!-- Generator: Adobe Illustrator 27.0.0, SVG Export Plug-In . SVG Version: 6.00 Build 0)  -->
<svg version="1.1" id="Ebene_1" xmlns="http://www.w3.org/2000/svg" xmlns:xlink="http://www.w3.org/1999/xlink" x="0px" y="0px"
	 viewBox="0 0 226.8 116.2" style="enable-background:new 0 0 226.8 116.2;" xml:space="preserve">
<style type="text/css">
	.st0{fill:#1A345C;}
</style>
<g>
	<polyline class="st0" points="226.7,9.3 210.3,9.3 201.6,25.4 198.1,9.3 192,25.4 185.8,9.3 182.3,25.4 173.6,9.3 157.2,9.3 
		157.2,22.7 177.1,30.8 157.4,39.5 177.6,46.4 158.6,56.3 179.2,61.3 161.6,72.9 181.8,75.1 167,88.8 186.6,88.8 176.4,102.9 
		192,115 207.5,102.9 197.3,88.8 216.9,88.8 202.2,75.1 222.4,72.9 204.8,61.3 225.3,56.3 206.3,46.4 226.5,39.5 206.8,30.8 
		226.8,22.7 	"/>
	<path class="st0" d="M81.9,102.3l-8.3-2.1l6.3-1.4l-0.3-1.6l4.3-0.1c0,0-2.8-3.8-6.4-3.5l-8,4.1c-1.1-0.5-10.1-9.3-10.1-9.3
		s7.3-7,3.2-12c-1-1.2-9.9-6-10.8-6c-1,0-8.9,6.8-8.9,6.8c3,2.3,5.7,5.8,5.3,9c-0.3,2.1-3.3,4.5-3.3,4.5
		c-0.5,1.3,18.2,11.6,18.2,11.6l-2,1.9c-1.8,2-0.8,4.3-0.8,4.3l2.7-2l0.7,0.9l3.2-2.5l1.3,6l1.9-0.2l0.6,4.5
		c3.5-1.1,3.7-6.3,3.7-6.3l-2.4-5.8l7.8,6l1-2.3l4,1.3C84.6,108,83.7,104.4,81.9,102.3"/>
	<path class="st0" d="M136.2,31.2l-5.9,0.8l4.8-5.6l-1.9-2l2.6-3.7c0,0-4.5-0.4-6.7,3l-3.9,9.4l0-7.3c-0.2,0.1-1.8,0-2.1,0l-0.4-4.5
		c0,0-3.5,1.6-4,7.4l3.5,6.4l-15.8,20.2c0,0,0,0,0,0.1c2.4,3.3,3,6.1,3.4,7.7l0.1,0.4l1.3,5.9l15.7-24.6l4.5,2.8
		c2.6-0.1,3.8-3.4,3.8-3.4l-3.9-1.4l-0.7-5.6l4.6,0.3L136,36l5,0.7C140.5,32.8,138.3,31.7,136.2,31.2"/>
	<path class="st0" d="M137.2,101.9l-7.3-3l4.9-0.4c-0.1-0.2,0.7-2.3,0.6-2.5l5.6-0.6c0,0-4-3.6-7.3-3.3l-8.2,3.1L104.6,79
		c0,0,4.6-0.8,7.2-2c0,0-2.2-2.6-2.9-6.1l-1.4-6.6c-0.4-1.5-0.7-3.9-3-7.1c-0.4-0.6-2.6-2.8-2.6-2.8l-3-2.4l3.5-0.5
		c4.5-1,4.8-4.5,4.8-4.5H92.6c0,0-0.1-0.9-0.1-2.7h14.5c2.5,0,4.5-0.8,5.9-2.3c2.5-2.5,2.8-5.8,2.8-6c0-0.8-0.7-1.4-1.4-1.4
		c-0.8,0-1.4,0.7-1.4,1.5c0,0-0.4,2.3-2.1,3.9c-0.9,0.9-2.2,1.4-3.9,1.4H92.7c0.1-0.4,0.1-0.2,0.2-0.5c0.4-1.5,2.1-2.1,3.9-2.1
		c3.2,0,6.7,0,11-0.2c2,0,3-3.2,3-3.2s0.9-5.2,0.9-5.9c0-0.8-0.3-0.9-1.2-1.2c-0.9-0.3-4.5-1.2-6.5-2.4c-2-1.2-4.8-2.4-6.4-2.4h-8.8
		c-1.4,0-3.6,1.6-3.6,1.6s-1-3.2-3.4-4.1L78,20l1.4,8.7l-2.2,7.8c0,0-4.2,2.3-5.9,2.6L68.7,39l2,2c0.7,0.7,2.9,0.7,5.1,0.5l-0.5,1.7
		c-0.2,0.1-4.1,2.4-5.7,2.7l-2.7-0.1l2,2c0.7,0.7,2.8,0.7,4.9,0.5l-1.1,3.6c0,0-0.3,3.2-4.1,3.2c-3.4,0-46.4-5.1-46.4-5.1
		c-3.1-0.3-9.9-1.4-9.9-7.2c0-5.4,5.3-6.3,10.2-6.3l35.1,0c9.5,0,14.2-4.9,14.6-14.4c0.4-8.1,5.2-11.4,8.2-11.4h14.6
		c4.2-1.9,6.9-9.6,6.9-9.6s-3.1,1.1-6.4,2H78.8c-3.6,0-7.7,5-9.4,10.8h0c-1.8-5.8-5.4-10.8-9.4-10.8H43.2c-3.3-0.9-6.4-2-6.4-2
		s2.8,7.7,6.9,9.6h14.5c3.1,0,8.2,3.2,8.2,11.4c0,6.3-2.9,9-8.8,9H43.2c0.5-1.7,1.5-5,2.4-6.4l3.1-2.5h-4.3c-2.3,0-6.6,6.6-8.2,9
		h-5.1c0.6-2.2,2.1-7.8,3.3-9.5l4-3.1c0,0-2,0-5.5,0c-3,0-8.7,9.8-10.6,12.6c-5.1,0-15.7,1.8-15.7,11.8c0,8,7.4,11.9,14.9,12.8
		c0.3,0.1,10,1.3,10,1.3l-8.1,18c0,0-3.5-0.5-4.3-0.1c-1.1,0.5-9.6,21.1-9.6,21.1L4,96.1c-0.9,0.4-2.9,2.4-3.4,3.3
		C0,100.7,0,101.9,0,101.9l3.2-1.1l1.4,1.3l3.5-1l-2.9,6.6l1.8,1.9l-0.6,5.4c2.9-0.3,5.1-4.9,5.1-4.9l0.3-6.8l2.5,6.2
		c0.4,0,0.4,0,1.6,0.2l3.3,5.3c0,0,1-0.8,1.3-2.1c0.3-1,0.3-4.8,0.3-4.8c-1.1-1.3-4.5-5.3-4.5-5.3l5.8,4.2c0.1-0.2,1-0.9,1.1-1.2
		L29,108c0,0-1.2-5.2-2.7-6.3L16.8,98l22.5-21.2c5.3-4.5,10-8.4,12.4-8.7c2.5-0.3,21.5,12.2,24.9,12.7c2.6,0.4,6.7-0.1,6.7-0.1
		s-0.5,3-0.1,3.7c1.1,2.2,33.7,14.6,33.7,14.6l-4.1,2.4c-1.4,0.9-2.3,5.1-2.3,5.1l5.2-2.9l1.2,1.7l4.2-3.4l-0.6,5.6l1.9,0.2l0.1,7.1
		c2.7-1.1,4.3-6.6,4.3-6.6l-0.1-5.3l5.5,4.9l2-1.9l4.8,2.3C139.1,108.4,138.9,103.5,137.2,101.9 M90.5,33.7
		c-0.4-0.2-0.5-0.8-0.3-1.2c0.9-1.3,3-4.5,4.6-4.8c0.4-0.1,0.8-0.1,1.2-0.1c1.6,0,2.9,0.6,4.2,1.2l1.5,0.7c0.4,0.2,0.6,0.7,0.4,1.2
		c-0.2,0.4-0.8,0.6-1.2,0.4l-1.5-0.8c-0.2-0.1-0.3-0.2-0.5-0.2c0.1,0.3,0.1,0.6,0.1,0.9c0,1.8-1.5,3.3-3.3,3.3c-1.5,0-2.7-1-3.1-2.4
		c-0.4,0.5-0.7,1-1,1.5C91.5,33.8,90.9,33.9,90.5,33.7"/>
	<path class="st0" d="M95.8,32.7c0.9,0,1.6-0.7,1.6-1.6c0-0.9-0.7-1.6-1.6-1.6c-0.9,0-1.6,0.7-1.6,1.6C94.2,32,94.9,32.7,95.8,32.7"
		/>
</g>
</svg>
